<svg xmlns="http://www.w3.org/2000/svg" viewBox="0 0 32 32" fill="none">
  <rect width="32" height="32" rx="6" fill="#4F6BED"/>
  <path d="M8 18h16v3c0 1.1-.9 2-2 2H10c-1.1 0-2-.9-2-2v-3z" fill="#fff"/>
  <path d="M7 16c0-.55.45-1 1-1h16c.55 0 1 .45 1 1v2H7v-2z" fill="#E8EAFF"/>
  <circle cx="11" cy="11" r="3" fill="#FFD93D"/>
  <path d="M11 8c-1.1 0-2 .9-2 2 0 .7.35 1.3.9 1.65-.3-.4-.4-.9-.4-1.4 0-1.2.95-2.2 2.15-2.2.5 0 .95.15 1.35.4-.35-.3-.8-.45-1.3-.45-.4 0-.7.05-.7.05z" fill="#FFC720" opacity="0.5"/>
  <path d="M14 10c0 1.65 1.35 3 3 3s3-1.35 3-3" stroke="#7A8BFF" stroke-width="1.5" stroke-linecap="round" fill="none" opacity="0.6"/>
</svg>
